# xmcd
#
# Track frame offsets:
#	187
#	13632
#	25105
#	36345
#	48790
#	62307
#	72760
#	85685
#	104257
#	114645
#	131240
#	150710
#	171020
#	187225
#	205162
#	223640
#	241982
#	256310
#
# Disc length: 3676 seconds
#
# Revision: 1
# Processed by: cddbd v1.5.1PL0 Copyright (c) Steve Scherf et al.
# Submitted via: CDex 1.50Beta5
#
DISCID=f30e5a12
DTITLE=さまざまなアーティスト - Endless Love
DYEAR=1900
DGENRE=Soul
TTITLE0=Marvin Gaye&Kim Weston/IT TAKES TWO
TTITLE1=Marvin Gaye&Mary Wells/ONCE UPON A TIME
TTITLE2=Marvin Gaye&Tammi Terrel/AIN'T NO MOUNTAIN HIGH ENOUGH
TTITLE3=Edwin Star&Blinky williams/OH HAPPY
TTITLE4=Marvin Gaye&Tammi Terrel/THE ONION SONGS
TTITLE5=Marvin Gaye&Tammi Terrel/AIN'T NOTHING LIKE THE REAL THING
TTITLE6=Marvin Gaye&Tammi Terrel/YOU'RE ALL NEED TO GET BY
TTITLE7=Syreeta&G.C.Cameron/I WANNA BE BY YOUR SIDE
TTITLE8=Marvin Gaye&Diana Ross/DON'T KNOCK MY LOVE
TTITLE9=Billy Preston&Syreeta/WITH YOU I'M BORN AGAIN
TTITLE10=Thelma Houston&Jery Butler/IT'S A LIFETIME THING
TTITLE11=Diana Ross&Lionel Richie/ENDLESS LOVE
TTITLE12=Smokey Robinson&Barbara Mitchell/BLAME IT ON LOVE
TTITLE13=Billy Preston%Syreeta/JUST FOR YOU(PUT THE BOOGIE IN YOUR BODY)
TTITLE14=Denis Edwards&Siedah Garrett/DON'T LOOK ANY FURTHER
TTITLE15=Charlene&Stevie Wonder/USED TO BE
TTITLE16=Syreeta&G.C.Cameron/LET'S MAKE A DEAL
TTITLE17=Stacy Lattisaw&Johnny Gill/WHERE DO WE GO FROM HERE
EXTD=
EXTT0=
EXTT1=
EXTT2=
EXTT3=
EXTT4=
EXTT5=
EXTT6=
EXTT7=
EXTT8=
EXTT9=
EXTT10=
EXTT11=
EXTT12=
EXTT13=
EXTT14=
EXTT15=
EXTT16=
EXTT17=
PLAYORDER=
